<svg width="148" height="33" viewBox="0 0 148 33" fill="none" xmlns="http://www.w3.org/2000/svg">
<path d="M23.1438 14.2636C24.6872 16.4685 25.2384 19.445 24.9077 22.3112C24.0258 29.0359 17.7421 33.7763 10.9071 32.8943C4.0722 32.0124 -0.778391 25.7287 0.103535 19.004C0.434257 16.9094 1.20594 14.9251 2.41859 13.2715C2.41859 13.2715 2.08787 19.5552 5.83605 19.9962C7.48966 20.2166 8.92279 19.1142 9.14327 17.4606C9.25351 16.6889 9.03303 15.807 8.59207 15.2558C5.17461 10.7359 5.50533 8.64137 5.61557 7.31848C6.4975 1.03476 12.7812 0.152832 12.7812 0.152832C12.1198 2.02692 11.7891 6.54679 16.1987 8.75161C20.6083 10.9564 21.9312 12.4998 23.1438 14.2636Z" fill="#FF6436"/>
<path fill-rule="evenodd" clip-rule="evenodd" d="M119.57 16.1673C118.829 16.1673 118.088 15.5322 118.088 14.6854C118.088 13.8387 118.723 13.2036 119.57 13.2036C120.417 13.2036 121.052 13.8387 121.052 14.6854C121.052 15.5322 120.417 16.1673 119.57 16.1673ZM46.537 26.4345H43.7851V21.0364H37.752V26.4345H35V13.6273H37.752V18.7078H43.7851V13.6273H46.537V26.4345ZM48.9718 30.0328L49.2893 27.8101C49.501 27.9159 49.8185 27.9159 50.0302 27.9159C50.6653 27.9159 51.0887 27.7042 51.3003 27.2808L51.6179 26.5399L48.0192 17.1198H50.6653L53.0997 23.5763L55.5341 17.1198H58.1802L53.8406 27.9159C53.0997 29.7153 51.9354 30.1386 50.3477 30.1386C49.9244 30.1386 49.2893 30.1386 48.9718 30.0328ZM61.9905 25.2699C62.7314 26.2225 63.7899 26.6458 64.8483 26.6458C67.1769 26.6458 68.9762 24.8465 68.9762 21.777C68.9762 18.7075 67.1769 16.9082 64.8483 16.9082C63.684 16.9082 62.7314 17.3315 61.9905 18.2841V17.1199H59.5561V30.0328H61.9905V25.2699ZM64.1073 24.4229C65.4833 24.4229 66.4359 23.3645 66.4359 21.671C66.4359 20.0833 65.4833 19.0249 64.1073 19.0249C63.3664 19.0249 62.4138 19.4482 61.9904 20.0833V23.3645C62.4138 23.9995 63.2606 24.4229 64.1073 24.4229ZM70.4575 21.777C70.4575 24.7406 72.5744 26.6458 75.4321 26.6458C76.914 26.6458 78.2899 26.2225 79.1367 25.2699L78.0783 23.6822C77.549 24.3173 76.3847 24.6348 75.6438 24.6348C74.0562 24.6348 73.1036 23.6822 72.9977 22.5179H79.8776V21.9887C79.8776 19.0251 77.9724 16.9082 75.2205 16.9082C72.4685 16.9082 70.4575 19.1309 70.4575 21.777ZM77.5496 20.9299C77.4438 20.0831 76.9146 18.9188 75.2211 18.9188C73.7392 18.9188 73.1042 20.0831 72.8925 20.9299H77.5496ZM90.9917 26.4345H94.0612L89.1924 13.6273H85.8053L80.8307 26.4345H83.9001L84.7469 24.3176H90.2508L90.9917 26.4345ZM89.4038 21.8832L87.3928 16.3793L85.3817 21.8832H89.4038ZM101.576 26.4341H104.011V17.1198H101.576V23.3646C101.153 23.8938 100.412 24.423 99.4596 24.423C98.4011 24.423 97.7661 23.9997 97.7661 22.7295V17.1198H95.3317V23.6821C95.3317 25.4815 96.2843 26.6458 98.2953 26.6458C99.7771 26.6458 100.941 26.0107 101.576 25.2698V26.4341ZM115.548 26.4345H113.113V25.2702C112.372 26.2228 111.314 26.6461 110.255 26.6461C107.927 26.6461 106.127 24.8468 106.127 21.7773C106.127 18.7078 107.927 16.9085 110.255 16.9085C111.314 16.9085 112.372 17.4377 113.113 18.2845V13.6273H115.548V26.4345ZM113.113 23.3645C112.69 23.9995 111.843 24.4229 110.996 24.4229C109.62 24.4229 108.668 23.3645 108.668 21.7768C108.668 20.0833 109.62 19.0249 110.996 19.0249C111.843 19.0249 112.69 19.4482 113.113 20.0833V23.3645ZM118.405 26.4341H120.84V17.1198H118.405V26.4341ZM126.661 26.6456C124.968 26.6456 124.015 25.7989 124.015 24.1054V19.2365H122.427V17.1197H124.015V14.5794H126.45V17.1197H128.355V19.2365H126.45V23.4703C126.45 23.9995 126.767 24.5288 127.296 24.5288C127.614 24.5288 128.037 24.4229 128.143 24.2112L128.672 26.0106C128.355 26.3281 127.72 26.6456 126.661 26.6456ZM129.836 21.777C129.836 24.4231 131.635 26.6458 134.705 26.6458C137.774 26.6458 139.68 24.4231 139.574 21.777C139.574 19.1309 137.774 16.9082 134.705 16.9082C131.635 16.9082 129.836 19.1309 129.836 21.777ZM134.705 24.4229C136.187 24.4229 137.034 23.1528 137.034 21.671C137.034 20.1892 136.187 19.0249 134.705 19.0249C133.223 19.0249 132.377 20.295 132.377 21.671C132.377 23.2586 133.223 24.4229 134.705 24.4229ZM141.797 26.4341H144.231V20.1893C144.655 19.5543 145.713 19.1309 146.56 19.1309C146.666 19.1309 146.771 19.1574 146.877 19.1838C146.983 19.2103 147.089 19.2367 147.195 19.2367V16.9082C146.031 16.9082 144.866 17.5432 144.231 18.39V17.1199H141.797V26.4341Z" fill="#FF6436"/>
</svg>
